<svg xmlns="http://www.w3.org/2000/svg" xmlns:xlink="http://www.w3.org/1999/xlink" version="1.1" x="0px" y="0px" viewBox="0 0 100 125" enable-background="new 0 0 100 100" xml:space="preserve"><path d="M89.255,13.407H21.253c-3.168,0-5.744,2.577-5.744,5.745v4.764h-4.764C7.577,23.915,5,26.492,5,29.66V80.85  c0,3.168,2.577,5.744,5.745,5.744h68.002c3.168,0,5.744-2.576,5.744-5.744v-4.765h4.764c3.168,0,5.745-2.577,5.745-5.745V19.151  C95,15.983,92.423,13.407,89.255,13.407z M80.662,80.85c0,1.055-0.859,1.914-1.915,1.914H10.745c-1.056,0-1.915-0.859-1.915-1.914  V29.66c0-1.056,0.859-1.915,1.915-1.915h4.764V70.34c0,3.168,2.576,5.745,5.744,5.745h59.409V80.85z M91.169,70.341  c0,1.056-0.858,1.915-1.915,1.915H21.253v-0.001c-1.056,0-1.915-0.858-1.915-1.915v-1.73l17.44-19.024  c1.01-1.102,2.347-1.708,3.764-1.708c1.418,0,2.755,0.606,3.765,1.708l16.648,18.162c0.715,0.78,1.927,0.832,2.706,0.118  c0.78-0.715,0.833-1.926,0.118-2.706l-2.535-2.767l8.164-8.658c1.031-1.094,2.402-1.697,3.861-1.697c1.457,0,2.828,0.604,3.86,1.697  l14.039,14.891V70.341z M91.17,63.042L79.917,51.107c-1.763-1.872-4.124-2.901-6.647-2.901c-2.522,0-4.885,1.03-6.646,2.901  l-7.973,8.455l-11.52-12.566c-1.745-1.902-4.085-2.949-6.589-2.949s-4.843,1.047-6.588,2.949L19.338,62.939V19.151  c0-1.056,0.859-1.915,1.915-1.915h68.002c1.056,0,1.915,0.859,1.915,1.915V63.042z"/><path d="M75.432,23.496c-5.229,0-9.481,4.253-9.481,9.481c-0.001,5.227,4.253,9.481,9.481,9.481s9.48-4.253,9.48-9.481  C84.912,27.748,80.659,23.496,75.432,23.496z M75.432,38.628c-3.117,0-5.652-2.535-5.652-5.651c0-3.117,2.533-5.652,5.652-5.652  c3.115,0,5.65,2.535,5.65,5.652C81.082,36.093,78.547,38.628,75.432,38.628z"/><text x="0" y="115" fill="#000000" font-size="5px" font-weight="bold" font-family="'Helvetica Neue', Helvetica, Arial-Unicode, Arial, Sans-serif">Created by David Khai</text><text x="0" y="120" fill="#000000" font-size="5px" font-weight="bold" font-family="'Helvetica Neue', Helvetica, Arial-Unicode, Arial, Sans-serif">from the Noun Project</text></svg>