<svg xmlns="http://www.w3.org/2000/svg" viewBox="0 0 32 40" x="0px" y="0px"><g data-name="Layer 51"><path d="M24,7H16.414l2.293-2.293a1,1,0,1,0-1.414-1.414l-4,4a1,1,0,0,0,0,1.414l4,4a1,1,0,0,0,1.414-1.414L16.414,9H24a3,3,0,0,1,3,3v8a3,3,0,0,1-3,3H8a1,1,0,0,0,0,2H24a5.006,5.006,0,0,0,5-5V12A5.006,5.006,0,0,0,24,7Z"/></g><text x="0" y="47" fill="#000000" font-size="5px" font-weight="bold" font-family="'Helvetica Neue', Helvetica, Arial-Unicode, Arial, Sans-serif">Created by Muhammad Ahsanu Nadia</text><text x="0" y="52" fill="#000000" font-size="5px" font-weight="bold" font-family="'Helvetica Neue', Helvetica, Arial-Unicode, Arial, Sans-serif">from the Noun Project</text></svg>