<svg xmlns:dc="http://purl.org/dc/elements/1.1/" xmlns:cc="http://creativecommons.org/ns#" xmlns:rdf="http://www.w3.org/1999/02/22-rdf-syntax-ns#" xmlns:svg="http://www.w3.org/2000/svg" xmlns="http://www.w3.org/2000/svg" xmlns:sodipodi="http://sodipodi.sourceforge.net/DTD/sodipodi-0.dtd" xmlns:inkscape="http://www.inkscape.org/namespaces/inkscape" version="1.1" x="0px" y="0px" viewBox="0 0 100 125"><g transform="translate(0,-952.36218)"><path style="font-size:medium;font-style:normal;font-variant:normal;font-weight:normal;font-stretch:normal;text-indent:0;text-align:start;text-decoration:none;line-height:normal;letter-spacing:normal;word-spacing:normal;text-transform:none;direction:ltr;block-progression:tb;writing-mode:lr-tb;text-anchor:start;baseline-shift:baseline;opacity:1;color:#000000;fill:#000000;fill-opacity:1;stroke:none;stroke-width:4;marker:none;visibility:visible;display:inline;overflow:visible;enable-background:accumulate;font-family:Sans;-inkscape-font-specification:Sans" d="m 26,25 c -0.489166,0 -0.933724,0.17713 -1.28125,0.46875 C 24.28154,25.835628 6.5761574,42.549715 6.4375,42.71875 6.1544643,43.063794 6,43.518898 6,44 c 0,0.463469 0.172903,0.87962 0.4375,1.21875 0.1592987,0.204171 18.1875,17.21875 18.1875,17.21875 0.759842,0.725152 2.121842,0.700421 2.84375,-0.0625 0.721908,-0.76293 0.672244,-2.125099 -0.09375,-2.84375 L 13.03125,46 64,46 c 13.878799,0 25.644075,11.62273 26,26 0,1.104569 0.895431,2 2,2 1.104569,0 2,-0.895431 2,-2 0,-0.739604 -0.09375,-2 -0.09375,-2 C 92.552934,54.385414 79.481528,42 64,42 L 13.03125,42 C 13.03125,42 27.133846,28.751698 27.5,28.34375 27.817811,27.989662 28,27.513249 28,27 28,25.895431 27.104569,25 26,25 z" transform="translate(0,952.36218)"/></g><text x="0" y="115" fill="#000000" font-size="5px" font-weight="bold" font-family="'Helvetica Neue', Helvetica, Arial-Unicode, Arial, Sans-serif">Created by romzicon</text><text x="0" y="120" fill="#000000" font-size="5px" font-weight="bold" font-family="'Helvetica Neue', Helvetica, Arial-Unicode, Arial, Sans-serif">from the Noun Project</text></svg>