<svg width="3" height="2" viewBox="0 0 3 2" fill="none" xmlns="http://www.w3.org/2000/svg">
<path d="M0.964344 2C0.929677 2 0.902344 1.99067 0.882344 1.972C0.863677 1.952 0.854344 1.92533 0.854344 1.892C0.854344 1.85733 0.863677 1.83133 0.882344 1.814C0.902344 1.79667 0.929677 1.788 0.964344 1.788H1.18834V0.806H1.31234L1.01834 0.984C0.99301 0.998667 0.96901 1.00467 0.946344 1.002C0.92501 0.998 0.906344 0.988667 0.890344 0.974C0.875677 0.958 0.865677 0.939333 0.860344 0.918C0.85501 0.896667 0.856344 0.875333 0.864344 0.854C0.873677 0.831333 0.89101 0.812667 0.916344 0.798L1.19234 0.632C1.21901 0.616 1.24568 0.602667 1.27234 0.592C1.29901 0.58 1.32368 0.574 1.34634 0.574C1.37434 0.574 1.39768 0.582 1.41634 0.598C1.43501 0.612667 1.44434 0.637333 1.44434 0.672V1.788H1.64834C1.68301 1.788 1.70968 1.79667 1.72834 1.814C1.74834 1.83133 1.75834 1.85733 1.75834 1.892C1.75834 1.92667 1.74834 1.95333 1.72834 1.972C1.70968 1.99067 1.68301 2 1.64834 2H0.964344ZM2.10156 2.01C2.05623 2.01 2.01956 1.996 1.99156 1.968C1.9649 1.94 1.95156 1.904 1.95156 1.86C1.95156 1.81733 1.9649 1.78267 1.99156 1.756C2.01956 1.728 2.05623 1.714 2.10156 1.714C2.14823 1.714 2.18423 1.728 2.20956 1.756C2.23623 1.78267 2.24956 1.81733 2.24956 1.86C2.24956 1.904 2.23623 1.94 2.20956 1.968C2.18423 1.996 2.14823 2.01 2.10156 2.01Z" fill="black"/>
</svg>
