<svg width="3" height="2" viewBox="0 0 3 2" fill="none" xmlns="http://www.w3.org/2000/svg">
<path d="M0.918344 2C0.875677 2 0.844344 1.99067 0.824344 1.972C0.805677 1.952 0.796344 1.92333 0.796344 1.886C0.796344 1.86333 0.802344 1.84133 0.814344 1.82C0.826344 1.79867 0.843677 1.776 0.866344 1.752L1.26834 1.324C1.32968 1.26 1.37368 1.202 1.40034 1.15C1.42701 1.09667 1.44034 1.04333 1.44034 0.99C1.44034 0.923333 1.41901 0.872667 1.37634 0.838C1.33501 0.803333 1.27434 0.786 1.19434 0.786C1.14901 0.786 1.10368 0.792667 1.05834 0.806C1.01301 0.818 0.96701 0.839333 0.920344 0.87C0.896344 0.886 0.873677 0.892667 0.852344 0.89C0.832344 0.887333 0.814344 0.878667 0.798344 0.864C0.783677 0.849333 0.773677 0.831333 0.768344 0.81C0.76301 0.788667 0.763677 0.767333 0.770344 0.746C0.778344 0.723333 0.794344 0.704 0.818344 0.688C0.875677 0.649333 0.939677 0.62 1.01034 0.6C1.08234 0.58 1.15434 0.57 1.22634 0.57C1.32768 0.57 1.41301 0.585333 1.48234 0.616C1.55168 0.646667 1.60434 0.691333 1.64034 0.75C1.67634 0.808667 1.69434 0.88 1.69434 0.964C1.69434 1.02 1.68501 1.07467 1.66634 1.128C1.64901 1.18133 1.62168 1.23533 1.58434 1.29C1.54834 1.34467 1.50101 1.40267 1.44234 1.464L1.06634 1.856V1.788H1.65434C1.69034 1.788 1.71768 1.79667 1.73634 1.814C1.75501 1.83133 1.76434 1.85733 1.76434 1.892C1.76434 1.92667 1.75501 1.95333 1.73634 1.972C1.71768 1.99067 1.69034 2 1.65434 2H0.918344ZM2.10156 2.01C2.05623 2.01 2.01956 1.996 1.99156 1.968C1.9649 1.94 1.95156 1.904 1.95156 1.86C1.95156 1.81733 1.9649 1.78267 1.99156 1.756C2.01956 1.728 2.05623 1.714 2.10156 1.714C2.14823 1.714 2.18423 1.728 2.20956 1.756C2.23623 1.78267 2.24956 1.81733 2.24956 1.86C2.24956 1.904 2.23623 1.94 2.20956 1.968C2.18423 1.996 2.14823 2.01 2.10156 2.01Z" fill="black"/>
</svg>
