<svg width="3" height="3" viewBox="0 0 3 3" fill="none" xmlns="http://www.w3.org/2000/svg">
<path d="M1.22434 2.02C1.15234 2.02 1.07768 2.01067 1.00034 1.992C0.92301 1.97333 0.855677 1.94533 0.798344 1.908C0.771677 1.89067 0.753677 1.87067 0.744344 1.848C0.73501 1.82533 0.732344 1.804 0.736344 1.784C0.741677 1.76267 0.751677 1.74467 0.766344 1.73C0.782344 1.71533 0.801677 1.70667 0.824344 1.704C0.848344 1.70133 0.874344 1.70733 0.902344 1.722C0.95701 1.75133 1.00968 1.77267 1.06034 1.786C1.11101 1.798 1.16301 1.804 1.21634 1.804C1.27501 1.804 1.32434 1.796 1.36434 1.78C1.40434 1.764 1.43434 1.74 1.45434 1.708C1.47568 1.676 1.48634 1.63733 1.48634 1.592C1.48634 1.52533 1.46368 1.476 1.41834 1.444C1.37434 1.41067 1.30968 1.394 1.22434 1.394H1.09634C1.05901 1.394 1.03034 1.38467 1.01034 1.366C0.991677 1.34733 0.982344 1.32133 0.982344 1.288C0.982344 1.25467 0.991677 1.22867 1.01034 1.21C1.03034 1.19133 1.05901 1.182 1.09634 1.182H1.20034C1.25101 1.182 1.29434 1.174 1.33034 1.158C1.36634 1.14067 1.39434 1.11667 1.41434 1.086C1.43434 1.05533 1.44434 1.018 1.44434 0.974C1.44434 0.912667 1.42368 0.866 1.38234 0.834C1.34234 0.802 1.28368 0.786 1.20634 0.786C1.15701 0.786 1.11034 0.792 1.06634 0.804C1.02368 0.814667 0.976344 0.835333 0.924344 0.866C0.900344 0.880667 0.87701 0.886667 0.854344 0.884C0.83301 0.881333 0.81501 0.872667 0.800344 0.858C0.785677 0.843333 0.775677 0.826 0.770344 0.806C0.76501 0.784667 0.766344 0.763333 0.774344 0.742C0.782344 0.719333 0.79901 0.7 0.824344 0.684C0.881677 0.646667 0.94501 0.618667 1.01434 0.6C1.08368 0.58 1.15501 0.57 1.22834 0.57C1.32568 0.57 1.40901 0.585333 1.47834 0.616C1.54768 0.645333 1.60034 0.688 1.63634 0.744C1.67368 0.798667 1.69234 0.865333 1.69234 0.944C1.69234 1 1.68168 1.05133 1.66034 1.098C1.63901 1.14333 1.60901 1.182 1.57034 1.214C1.53168 1.246 1.48501 1.26867 1.43034 1.282V1.258C1.52634 1.274 1.60101 1.314 1.65434 1.378C1.70768 1.44067 1.73434 1.51933 1.73434 1.614C1.73434 1.69667 1.71368 1.76867 1.67234 1.83C1.63101 1.89133 1.57234 1.93867 1.49634 1.972C1.42034 2.004 1.32968 2.02 1.22434 2.02ZM2.10156 2.01C2.05623 2.01 2.01956 1.996 1.99156 1.968C1.9649 1.94 1.95156 1.904 1.95156 1.86C1.95156 1.81733 1.9649 1.78267 1.99156 1.756C2.01956 1.728 2.05623 1.714 2.10156 1.714C2.14823 1.714 2.18423 1.728 2.20956 1.756C2.23623 1.78267 2.24956 1.81733 2.24956 1.86C2.24956 1.904 2.23623 1.94 2.20956 1.968C2.18423 1.996 2.14823 2.01 2.10156 2.01Z" fill="black"/>
</svg>
