<svg width="3" height="3" viewBox="0 0 3 3" fill="none" xmlns="http://www.w3.org/2000/svg">
<path d="M1.47834 2.016C1.43834 2.016 1.40701 2.00533 1.38434 1.984C1.36168 1.96133 1.35034 1.92933 1.35034 1.888V1.732H0.856344C0.81501 1.732 0.781677 1.72333 0.756344 1.706C0.732344 1.68867 0.720344 1.66133 0.720344 1.624C0.720344 1.60267 0.725677 1.57933 0.736344 1.554C0.748344 1.52867 0.76901 1.49533 0.798344 1.454L1.34634 0.66C1.36501 0.632 1.38568 0.610667 1.40834 0.596C1.43101 0.581333 1.45701 0.574 1.48634 0.574C1.52101 0.574 1.54968 0.584667 1.57234 0.606C1.59501 0.626 1.60634 0.658 1.60634 0.702V1.52H1.70434C1.74301 1.52 1.77168 1.52933 1.79034 1.548C1.81034 1.56533 1.82034 1.59133 1.82034 1.626C1.82034 1.66067 1.81034 1.68733 1.79034 1.706C1.77168 1.72333 1.74301 1.732 1.70434 1.732H1.60634V1.888C1.60634 1.92933 1.59501 1.96133 1.57234 1.984C1.54968 2.00533 1.51834 2.016 1.47834 2.016ZM1.35034 1.52V0.896H1.40834L0.936344 1.588V1.52H1.35034ZM2.10156 2.01C2.05623 2.01 2.01956 1.996 1.99156 1.968C1.9649 1.94 1.95156 1.904 1.95156 1.86C1.95156 1.81733 1.9649 1.78267 1.99156 1.756C2.01956 1.728 2.05623 1.714 2.10156 1.714C2.14823 1.714 2.18423 1.728 2.20956 1.756C2.23623 1.78267 2.24956 1.81733 2.24956 1.86C2.24956 1.904 2.23623 1.94 2.20956 1.968C2.18423 1.996 2.14823 2.01 2.10156 2.01Z" fill="black"/>
</svg>
