<svg width="72" height="24" viewBox="0 0 72 24" fill="none" xmlns="http://www.w3.org/2000/svg">
<g clip-path="url(#clip0_55_174)">
<rect width="72" height="24" rx="10" fill="white"/>
<path d="M8.179 17.077C8.03233 17.077 7.91866 17.0367 7.838 16.956C7.76466 16.868 7.728 16.7507 7.728 16.604V9.707C7.728 9.553 7.76833 9.43933 7.849 9.366C7.92966 9.28533 8.04333 9.245 8.19 9.245H10.797C11.6257 9.245 12.2637 9.43933 12.711 9.828C13.1583 10.2167 13.382 10.7703 13.382 11.489C13.382 11.9437 13.2793 12.3397 13.074 12.677C12.876 13.007 12.5827 13.26 12.194 13.436C11.8053 13.6047 11.3397 13.689 10.797 13.689L10.907 13.546H11.127C11.413 13.546 11.6623 13.6193 11.875 13.766C12.0877 13.9127 12.282 14.1473 12.458 14.47L13.514 16.439C13.5727 16.5417 13.5983 16.6443 13.591 16.747C13.591 16.8423 13.558 16.923 13.492 16.989C13.426 17.0477 13.3307 17.077 13.206 17.077C13.0813 17.077 12.9787 17.0477 12.898 16.989C12.8173 16.9303 12.7477 16.846 12.689 16.736L11.49 14.514C11.3213 14.1987 11.127 13.9897 10.907 13.887C10.687 13.777 10.3973 13.722 10.038 13.722H8.63V16.604C8.63 16.7507 8.59333 16.868 8.52 16.956C8.44666 17.0367 8.333 17.077 8.179 17.077ZM8.63 13.007H10.665C11.2663 13.007 11.721 12.8823 12.029 12.633C12.337 12.3763 12.491 11.995 12.491 11.489C12.491 10.9977 12.337 10.6273 12.029 10.378C11.721 10.1213 11.2663 9.993 10.665 9.993H8.63V13.007ZM15.4054 17.055C15.2587 17.055 15.1487 17.0147 15.0754 16.934C15.0021 16.846 14.9654 16.725 14.9654 16.571V12.072C14.9654 11.918 15.0021 11.8007 15.0754 11.72C15.1487 11.6393 15.2587 11.599 15.4054 11.599C15.5447 11.599 15.6547 11.6393 15.7354 11.72C15.8161 11.8007 15.8564 11.918 15.8564 12.072V16.571C15.8564 16.725 15.8161 16.846 15.7354 16.934C15.6621 17.0147 15.5521 17.055 15.4054 17.055ZM15.4054 10.367C15.2221 10.367 15.0791 10.3193 14.9764 10.224C14.8737 10.1213 14.8224 9.98567 14.8224 9.817C14.8224 9.641 14.8737 9.509 14.9764 9.421C15.0791 9.32567 15.2221 9.278 15.4054 9.278C15.5961 9.278 15.7391 9.32567 15.8344 9.421C15.9371 9.509 15.9884 9.641 15.9884 9.817C15.9884 9.98567 15.9371 10.1213 15.8344 10.224C15.7391 10.3193 15.5961 10.367 15.4054 10.367ZM19.887 19.079C19.4984 19.079 19.117 19.0313 18.743 18.936C18.3764 18.848 18.0427 18.705 17.742 18.507C17.654 18.4557 17.5954 18.3933 17.566 18.32C17.544 18.2467 17.5404 18.1733 17.555 18.1C17.5697 18.034 17.6027 17.9717 17.654 17.913C17.7054 17.8617 17.764 17.8287 17.83 17.814C17.9034 17.7993 17.9767 17.8103 18.05 17.847C18.3727 18.045 18.6807 18.1807 18.974 18.254C19.2674 18.3273 19.557 18.364 19.843 18.364C20.3637 18.364 20.756 18.2247 21.02 17.946C21.2914 17.6673 21.427 17.264 21.427 16.736V15.493H21.537C21.427 15.9183 21.1924 16.2557 20.833 16.505C20.481 16.7543 20.0667 16.879 19.59 16.879C19.0987 16.879 18.6734 16.769 18.314 16.549C17.9547 16.3217 17.676 16.0063 17.478 15.603C17.2874 15.1997 17.192 14.734 17.192 14.206C17.192 13.81 17.247 13.4507 17.357 13.128C17.467 12.798 17.6247 12.5193 17.83 12.292C18.0427 12.0573 18.2957 11.8777 18.589 11.753C18.8897 11.621 19.2234 11.555 19.59 11.555C20.074 11.555 20.492 11.6797 20.844 11.929C21.196 12.171 21.4234 12.501 21.526 12.919L21.416 13.051V12.028C21.416 11.8813 21.4527 11.7713 21.526 11.698C21.6067 11.6173 21.7167 11.577 21.856 11.577C22.0027 11.577 22.1127 11.6173 22.186 11.698C22.2594 11.7713 22.296 11.8813 22.296 12.028V16.615C22.296 17.429 22.0907 18.0413 21.68 18.452C21.2767 18.87 20.679 19.079 19.887 19.079ZM19.755 16.153C20.0997 16.153 20.3967 16.076 20.646 15.922C20.8954 15.7607 21.086 15.5333 21.218 15.24C21.3574 14.9467 21.427 14.602 21.427 14.206C21.427 13.612 21.2767 13.1427 20.976 12.798C20.6754 12.446 20.2684 12.27 19.755 12.27C19.4177 12.27 19.1244 12.3507 18.875 12.512C18.6257 12.666 18.4314 12.8897 18.292 13.183C18.16 13.469 18.094 13.81 18.094 14.206C18.094 14.8 18.2444 15.273 18.545 15.625C18.8457 15.977 19.249 16.153 19.755 16.153ZM24.4073 17.077C24.2607 17.077 24.1507 17.0367 24.0773 16.956C24.004 16.8753 23.9673 16.7617 23.9673 16.615V9.619C23.9673 9.47233 24.004 9.36233 24.0773 9.289C24.1507 9.20833 24.2607 9.168 24.4073 9.168C24.5467 9.168 24.6567 9.20833 24.7373 9.289C24.818 9.36233 24.8583 9.47233 24.8583 9.619V12.842H24.7153C24.8693 12.4167 25.1187 12.0977 25.4633 11.885C25.8153 11.665 26.2187 11.555 26.6733 11.555C27.0987 11.555 27.4507 11.632 27.7293 11.786C28.0153 11.94 28.228 12.1747 28.3673 12.49C28.5067 12.798 28.5763 13.1903 28.5763 13.667V16.615C28.5763 16.7617 28.536 16.8753 28.4553 16.956C28.382 17.0367 28.2757 17.077 28.1363 17.077C27.9897 17.077 27.876 17.0367 27.7953 16.956C27.722 16.8753 27.6853 16.7617 27.6853 16.615V13.722C27.6853 13.2233 27.5863 12.8603 27.3883 12.633C27.1977 12.3983 26.8897 12.281 26.4643 12.281C25.973 12.281 25.5807 12.435 25.2873 12.743C25.0013 13.0437 24.8583 13.447 24.8583 13.953V16.615C24.8583 16.923 24.708 17.077 24.4073 17.077ZM32.3643 17.099C31.9463 17.099 31.5943 17.0257 31.3083 16.879C31.0296 16.725 30.8206 16.505 30.6813 16.219C30.542 15.9257 30.4723 15.57 30.4723 15.152V12.347H29.7353C29.6106 12.347 29.5153 12.3177 29.4493 12.259C29.3833 12.193 29.3503 12.105 29.3503 11.995C29.3503 11.885 29.3833 11.8007 29.4493 11.742C29.5153 11.6833 29.6106 11.654 29.7353 11.654H30.4723V10.389C30.4723 10.2423 30.5126 10.1323 30.5933 10.059C30.674 9.97833 30.784 9.938 30.9233 9.938C31.0626 9.938 31.169 9.97833 31.2423 10.059C31.323 10.1323 31.3633 10.2423 31.3633 10.389V11.654H32.7493C32.874 11.654 32.9693 11.6833 33.0353 11.742C33.1013 11.8007 33.1343 11.885 33.1343 11.995C33.1343 12.105 33.1013 12.193 33.0353 12.259C32.9693 12.3177 32.874 12.347 32.7493 12.347H31.3633V15.064C31.3633 15.482 31.4513 15.801 31.6273 16.021C31.8033 16.2337 32.0893 16.34 32.4853 16.34C32.6246 16.34 32.742 16.3253 32.8373 16.296C32.94 16.2667 33.0243 16.252 33.0903 16.252C33.1563 16.2447 33.2113 16.2667 33.2553 16.318C33.2993 16.3693 33.3213 16.4573 33.3213 16.582C33.3213 16.67 33.303 16.7507 33.2663 16.824C33.237 16.8973 33.182 16.9487 33.1013 16.978C33.0133 17.0073 32.896 17.033 32.7493 17.055C32.61 17.0843 32.4816 17.099 32.3643 17.099Z" fill="black"/>
<path d="M67.9999 12.0012L63.8706 16.5166" stroke="black" stroke-linecap="round"/>
<path d="M63.8705 16.5212L60.0005 12.0047" stroke="black" stroke-linecap="round"/>
<path d="M40 8.5H54.5" stroke="black" stroke-linecap="round"/>
<path d="M40 12H51" stroke="black" stroke-linecap="round"/>
<path d="M40 15H52.5" stroke="black" stroke-linecap="round"/>
<path d="M40 18.5H51" stroke="black" stroke-linecap="round"/>
</g>
<defs>
<clipPath id="clip0_55_174">
<rect width="72" height="24" rx="10" fill="white"/>
</clipPath>
</defs>
</svg>
