<svg width="24" height="24" viewBox="0 0 24 24" fill="none" xmlns="http://www.w3.org/2000/svg">
<g clip-path="url(#clip0_52_7)">
<path d="M9.60914 16C9.34514 16 9.14114 15.932 8.99714 15.796C8.86114 15.652 8.79314 15.448 8.79314 15.184V8.356C8.79314 8.092 8.86114 7.892 8.99714 7.756C9.14114 7.612 9.34514 7.54 9.60914 7.54H12.4891C13.0811 7.54 13.5851 7.628 14.0011 7.804C14.4171 7.98 14.7331 8.232 14.9491 8.56C15.1731 8.888 15.2851 9.28 15.2851 9.736C15.2851 10.248 15.1371 10.68 14.8411 11.032C14.5451 11.384 14.1411 11.62 13.6291 11.74V11.56C14.2211 11.648 14.6811 11.872 15.0091 12.232C15.3371 12.592 15.5011 13.06 15.5011 13.636C15.5011 14.388 15.2451 14.972 14.7331 15.388C14.2291 15.796 13.5251 16 12.6211 16H9.60914ZM10.2691 14.836H12.4291C12.9731 14.836 13.3731 14.732 13.6291 14.524C13.8851 14.308 14.0131 13.988 14.0131 13.564C14.0131 13.132 13.8851 12.812 13.6291 12.604C13.3731 12.396 12.9731 12.292 12.4291 12.292H10.2691V14.836ZM10.2691 11.128H12.2251C12.7531 11.128 13.1451 11.028 13.4011 10.828C13.6651 10.62 13.7971 10.316 13.7971 9.916C13.7971 9.516 13.6651 9.216 13.4011 9.016C13.1451 8.808 12.7531 8.704 12.2251 8.704H10.2691V11.128Z" fill="black"/>
</g>
<defs>
<clipPath id="clip0_52_7">
<rect width="24" height="24" fill="white"/>
</clipPath>
</defs>
</svg>
