<svg width="24" height="24" viewBox="0 0 24 24" fill="none" xmlns="http://www.w3.org/2000/svg">
<g clip-path="url(#clip0_52_5)">
<path d="M5.30541 16.084C5.17741 16.084 5.07341 16.056 4.99341 16C4.92141 15.936 4.87741 15.856 4.86141 15.76C4.85341 15.656 4.87741 15.54 4.93341 15.412L8.23341 7.9C8.30541 7.74 8.38941 7.628 8.48541 7.564C8.58941 7.492 8.70141 7.456 8.82141 7.456C8.94141 7.456 9.04941 7.492 9.14541 7.564C9.24941 7.628 9.33341 7.74 9.39741 7.9L12.7094 15.412C12.7734 15.54 12.7974 15.656 12.7814 15.76C12.7734 15.864 12.7334 15.944 12.6614 16C12.5894 16.056 12.4894 16.084 12.3614 16.084C12.2174 16.084 12.1014 16.048 12.0134 15.976C11.9254 15.896 11.8534 15.784 11.7974 15.64L10.9094 13.588L11.3894 13.84H6.22941L6.72141 13.588L5.84541 15.64C5.77341 15.792 5.69741 15.904 5.61741 15.976C5.53741 16.048 5.43341 16.084 5.30541 16.084ZM8.80941 8.692L6.87741 13.24L6.58941 13.012H11.0294L10.7654 13.24L8.83341 8.692H8.80941ZM15.9433 16.108C15.5433 16.108 15.1833 16.032 14.8633 15.88C14.5513 15.72 14.3033 15.504 14.1193 15.232C13.9353 14.96 13.8433 14.656 13.8433 14.32C13.8433 13.888 13.9513 13.548 14.1673 13.3C14.3913 13.052 14.7553 12.876 15.2593 12.772C15.7713 12.668 16.4673 12.616 17.3473 12.616H17.8873V13.252H17.3593C16.7113 13.252 16.1993 13.284 15.8233 13.348C15.4553 13.404 15.1953 13.504 15.0433 13.648C14.8993 13.792 14.8273 13.996 14.8273 14.26C14.8273 14.588 14.9393 14.856 15.1633 15.064C15.3953 15.272 15.7073 15.376 16.0993 15.376C16.4193 15.376 16.6993 15.3 16.9393 15.148C17.1873 14.996 17.3793 14.788 17.5153 14.524C17.6593 14.26 17.7313 13.956 17.7313 13.612V12.244C17.7313 11.748 17.6313 11.392 17.4313 11.176C17.2313 10.952 16.9033 10.84 16.4473 10.84C16.1673 10.84 15.8873 10.876 15.6073 10.948C15.3273 11.02 15.0313 11.136 14.7193 11.296C14.6073 11.352 14.5113 11.372 14.4313 11.356C14.3513 11.332 14.2873 11.288 14.2393 11.224C14.1913 11.16 14.1633 11.088 14.1553 11.008C14.1473 10.92 14.1633 10.836 14.2033 10.756C14.2513 10.676 14.3233 10.612 14.4193 10.564C14.7713 10.388 15.1193 10.26 15.4633 10.18C15.8073 10.1 16.1353 10.06 16.4473 10.06C16.9513 10.06 17.3673 10.144 17.6953 10.312C18.0233 10.472 18.2673 10.72 18.4273 11.056C18.5873 11.384 18.6673 11.808 18.6673 12.328V15.58C18.6673 15.74 18.6273 15.864 18.5473 15.952C18.4753 16.04 18.3673 16.084 18.2233 16.084C18.0713 16.084 17.9553 16.04 17.8753 15.952C17.7953 15.864 17.7553 15.74 17.7553 15.58V14.644H17.8633C17.7993 14.948 17.6753 15.208 17.4913 15.424C17.3153 15.64 17.0953 15.808 16.8313 15.928C16.5673 16.048 16.2713 16.108 15.9433 16.108Z" fill="black"/>
</g>
<defs>
<clipPath id="clip0_52_5">
<rect width="24" height="24" fill="white"/>
</clipPath>
</defs>
</svg>
