<svg width="28" height="24" viewBox="0 0 28 24" fill="none" xmlns="http://www.w3.org/2000/svg">
<g clip-path="url(#clip0_54_139)">
<rect x="-41" y="-40" width="100" height="100" fill="white"/>
<path d="M3 12C3 10.3431 4.34315 9 6 9H11C12.6569 9 14 10.3431 14 12V17C14 18.6569 12.6569 20 11 20H6C4.34315 20 3 18.6569 3 17V12Z" fill="black"/>
<g clip-path="url(#clip1_54_139)">
<path d="M17.1529 13.404L20.8584 17.1359C20.9902 17.2686 21.1702 17.2667 21.3003 17.1313L24.9593 13.3231C25.121 13.1548 25.152 12.8394 25.0286 12.6186C24.9555 12.4876 24.8445 12.4194 24.7325 12.4205C24.6557 12.4213 24.5783 12.4549 24.5125 12.5234L21.073 16.1031L17.5898 12.5952C17.4261 12.4302 17.1955 12.4777 17.0749 12.7011C16.9542 12.9244 16.9892 13.2391 17.1529 13.404Z" fill="black"/>
</g>
</g>
<defs>
<clipPath id="clip0_54_139">
<rect width="28" height="24" rx="6" fill="white"/>
</clipPath>
<clipPath id="clip1_54_139">
<rect width="10" height="13" fill="white" transform="translate(17 7)"/>
</clipPath>
</defs>
</svg>
