<svg width="24" height="24" viewBox="0 0 24 24" fill="none" xmlns="http://www.w3.org/2000/svg">
<path d="M9.83794 18.2553C9.64591 18.4436 9.4973 18.5697 9.34542 18.6618C8.60197 19.1128 7.68602 19.1128 6.94259 18.6618C6.66862 18.4956 6.40528 18.2189 5.87859 17.6656C5.35189 17.1122 5.08854 16.8355 4.93038 16.5476C4.50115 15.7665 4.50115 14.804 4.93038 14.0229C5.08854 13.7351 5.35189 13.4584 5.87859 12.905L8.144 10.5247C8.6707 9.97133 8.93404 9.69463 9.20799 9.52845C9.95144 9.07746 10.8674 9.07746 11.6108 9.52844C11.8848 9.69463 12.1481 9.97133 12.6748 10.5247C13.2015 11.0781 13.4649 11.3548 13.6231 11.6427C14.0523 12.4238 14.0523 13.3862 13.6231 14.1673C13.5354 14.3269 13.4154 14.4831 13.236 14.6848M10.9809 12.3153C10.8016 12.517 10.6816 12.6732 10.5939 12.8328C10.1647 13.6139 10.1647 14.5763 10.5939 15.3575C10.7521 15.6454 11.0154 15.9221 11.5421 16.4754C12.0688 17.0288 12.3322 17.3055 12.6061 17.4717C13.3495 17.9227 14.2655 17.9227 15.0089 17.4717C15.2829 17.3055 15.5463 17.0288 16.073 16.4754L18.3384 14.0951C18.8651 13.5417 19.1284 13.265 19.2865 12.9772C19.7158 12.1961 19.7158 11.2337 19.2865 10.4525C19.1284 10.1647 18.8651 9.88798 18.3384 9.33459C17.8117 8.78119 17.5483 8.50449 17.2744 8.3383C16.5309 7.88731 15.615 7.88731 14.8716 8.3383C14.7196 8.43044 14.5711 8.55653 14.379 8.7449" stroke="black" stroke-width="1.2" stroke-linecap="round"/>
</svg>
