<svg width="24" height="24" viewBox="0 0 24 24" fill="none" xmlns="http://www.w3.org/2000/svg">
<g clip-path="url(#clip0_57_971)">
<path d="M17 11H7" stroke="black" stroke-linecap="round"/>
<path d="M4.71478 11.524C4.68012 11.524 4.65278 11.5147 4.63278 11.496C4.61412 11.476 4.60478 11.4493 4.60478 11.416C4.60478 11.3813 4.61412 11.3553 4.63278 11.338C4.65278 11.3207 4.68012 11.312 4.71478 11.312H4.93878V10.33H5.06278L4.76878 10.508C4.74345 10.5227 4.71945 10.5287 4.69678 10.526C4.67545 10.522 4.65678 10.5127 4.64078 10.498C4.62612 10.482 4.61612 10.4633 4.61078 10.442C4.60545 10.4207 4.60678 10.3993 4.61478 10.378C4.62412 10.3553 4.64145 10.3367 4.66678 10.322L4.94278 10.156C4.96945 10.14 4.99612 10.1267 5.02278 10.116C5.04945 10.104 5.07412 10.098 5.09678 10.098C5.12478 10.098 5.14812 10.106 5.16678 10.122C5.18545 10.1367 5.19478 10.1613 5.19478 10.196V11.312H5.39878C5.43345 11.312 5.46012 11.3207 5.47878 11.338C5.49878 11.3553 5.50878 11.3813 5.50878 11.416C5.50878 11.4507 5.49878 11.4773 5.47878 11.496C5.46012 11.5147 5.43345 11.524 5.39878 11.524H4.71478ZM5.852 11.534C5.80667 11.534 5.77 11.52 5.742 11.492C5.71534 11.464 5.702 11.428 5.702 11.384C5.702 11.3413 5.71534 11.3067 5.742 11.28C5.77 11.252 5.80667 11.238 5.852 11.238C5.89867 11.238 5.93467 11.252 5.96 11.28C5.98667 11.3067 6 11.3413 6 11.384C6 11.428 5.98667 11.464 5.96 11.492C5.93467 11.52 5.89867 11.534 5.852 11.534Z" fill="black"/>
<g clip-path="url(#clip1_57_971)">
<path d="M4.74227 14.43C4.6996 14.43 4.66827 14.4207 4.64827 14.402C4.6296 14.382 4.62027 14.3533 4.62027 14.316C4.62027 14.2933 4.62627 14.2713 4.63827 14.25C4.65027 14.2287 4.6676 14.206 4.69027 14.182L5.09227 13.754C5.15361 13.69 5.19761 13.632 5.22427 13.58C5.25094 13.5267 5.26427 13.4733 5.26427 13.42C5.26427 13.3533 5.24294 13.3027 5.20027 13.268C5.15894 13.2333 5.09827 13.216 5.01827 13.216C4.97294 13.216 4.92761 13.2227 4.88227 13.236C4.83694 13.248 4.79094 13.2693 4.74427 13.3C4.72027 13.316 4.6976 13.3227 4.67627 13.32C4.65627 13.3173 4.63827 13.3087 4.62227 13.294C4.6076 13.2793 4.5976 13.2613 4.59227 13.24C4.58694 13.2187 4.5876 13.1973 4.59427 13.176C4.60227 13.1533 4.61827 13.134 4.64227 13.118C4.6996 13.0793 4.7636 13.05 4.83427 13.03C4.90627 13.01 4.97827 13 5.05027 13C5.15161 13 5.23694 13.0153 5.30627 13.046C5.37561 13.0767 5.42827 13.1213 5.46427 13.18C5.50027 13.2387 5.51827 13.31 5.51827 13.394C5.51827 13.45 5.50894 13.5047 5.49027 13.558C5.47294 13.6113 5.44561 13.6653 5.40827 13.72C5.37227 13.7747 5.32494 13.8327 5.26627 13.894L4.89027 14.286V14.218H5.47827C5.51427 14.218 5.54161 14.2267 5.56027 14.244C5.57894 14.2613 5.58827 14.2873 5.58827 14.322C5.58827 14.3567 5.57894 14.3833 5.56027 14.402C5.54161 14.4207 5.51427 14.43 5.47827 14.43H4.74227ZM5.92549 14.44C5.88016 14.44 5.84349 14.426 5.81549 14.398C5.78883 14.37 5.77549 14.334 5.77549 14.29C5.77549 14.2473 5.78883 14.2127 5.81549 14.186C5.84349 14.158 5.88016 14.144 5.92549 14.144C5.97216 14.144 6.00816 14.158 6.03349 14.186C6.06016 14.2127 6.07349 14.2473 6.07349 14.29C6.07349 14.334 6.06016 14.37 6.03349 14.398C6.00816 14.426 5.97216 14.44 5.92549 14.44Z" fill="black"/>
</g>
<g clip-path="url(#clip2_57_971)">
<path d="M5.03635 17.434C4.96435 17.434 4.88969 17.4247 4.81235 17.406C4.73502 17.3873 4.66769 17.3593 4.61036 17.322C4.58369 17.3047 4.56569 17.2847 4.55636 17.262C4.54702 17.2393 4.54436 17.218 4.54836 17.198C4.55369 17.1767 4.56369 17.1587 4.57836 17.144C4.59436 17.1293 4.61369 17.1207 4.63636 17.118C4.66036 17.1153 4.68636 17.1213 4.71436 17.136C4.76902 17.1653 4.82169 17.1867 4.87235 17.2C4.92302 17.212 4.97502 17.218 5.02835 17.218C5.08702 17.218 5.13635 17.21 5.17635 17.194C5.21635 17.178 5.24635 17.154 5.26635 17.122C5.28769 17.09 5.29835 17.0513 5.29835 17.006C5.29835 16.9393 5.27569 16.89 5.23035 16.858C5.18635 16.8247 5.12169 16.808 5.03635 16.808H4.90835C4.87102 16.808 4.84235 16.7987 4.82235 16.78C4.80369 16.7613 4.79436 16.7353 4.79436 16.702C4.79436 16.6687 4.80369 16.6427 4.82235 16.624C4.84235 16.6053 4.87102 16.596 4.90835 16.596H5.01235C5.06302 16.596 5.10635 16.588 5.14235 16.572C5.17835 16.5547 5.20635 16.5307 5.22635 16.5C5.24635 16.4693 5.25635 16.432 5.25635 16.388C5.25635 16.3267 5.23569 16.28 5.19435 16.248C5.15435 16.216 5.09569 16.2 5.01835 16.2C4.96902 16.2 4.92235 16.206 4.87835 16.218C4.83569 16.2287 4.78836 16.2493 4.73636 16.28C4.71236 16.2947 4.68902 16.3007 4.66636 16.298C4.64502 16.2953 4.62702 16.2867 4.61236 16.272C4.59769 16.2573 4.58769 16.24 4.58236 16.22C4.57702 16.1987 4.57836 16.1773 4.58636 16.156C4.59436 16.1333 4.61102 16.114 4.63636 16.098C4.69369 16.0607 4.75702 16.0327 4.82635 16.014C4.89569 15.994 4.96702 15.984 5.04035 15.984C5.13769 15.984 5.22102 15.9993 5.29035 16.03C5.35969 16.0593 5.41235 16.102 5.44835 16.158C5.48569 16.2127 5.50435 16.2793 5.50435 16.358C5.50435 16.414 5.49369 16.4653 5.47235 16.512C5.45102 16.5573 5.42102 16.596 5.38235 16.628C5.34369 16.66 5.29702 16.6827 5.24235 16.696V16.672C5.33835 16.688 5.41302 16.728 5.46635 16.792C5.51969 16.8547 5.54635 16.9333 5.54635 17.028C5.54635 17.1107 5.52569 17.1827 5.48435 17.244C5.44302 17.3053 5.38435 17.3527 5.30835 17.386C5.23235 17.418 5.14169 17.434 5.03635 17.434ZM5.91357 17.424C5.86824 17.424 5.83157 17.41 5.80357 17.382C5.77691 17.354 5.76357 17.318 5.76357 17.274C5.76357 17.2313 5.77691 17.1967 5.80357 17.17C5.83157 17.142 5.86824 17.128 5.91357 17.128C5.96024 17.128 5.99624 17.142 6.02157 17.17C6.04824 17.1967 6.06157 17.2313 6.06157 17.274C6.06157 17.318 6.04824 17.354 6.02157 17.382C5.99624 17.41 5.96024 17.424 5.91357 17.424Z" fill="black"/>
</g>
<path d="M5.33033 20.442C5.29033 20.442 5.259 20.4313 5.23633 20.41C5.21367 20.3873 5.20233 20.3553 5.20233 20.314V20.158H4.70834C4.667 20.158 4.63367 20.1493 4.60834 20.132C4.58434 20.1147 4.57234 20.0873 4.57234 20.05C4.57234 20.0287 4.57767 20.0053 4.58834 19.98C4.60034 19.9547 4.621 19.9213 4.65034 19.88L5.19833 19.086C5.217 19.058 5.23767 19.0367 5.26033 19.022C5.283 19.0073 5.309 19 5.33833 19C5.373 19 5.40167 19.0107 5.42433 19.032C5.447 19.052 5.45833 19.084 5.45833 19.128V19.946H5.55633C5.595 19.946 5.62367 19.9553 5.64233 19.974C5.66233 19.9913 5.67233 20.0173 5.67233 20.052C5.67233 20.0867 5.66233 20.1133 5.64233 20.132C5.62367 20.1493 5.595 20.158 5.55633 20.158H5.45833V20.314C5.45833 20.3553 5.447 20.3873 5.42433 20.41C5.40167 20.4313 5.37033 20.442 5.33033 20.442ZM5.20233 19.946V19.322H5.26033L4.78834 20.014V19.946H5.20233ZM5.95355 20.436C5.90822 20.436 5.87155 20.422 5.84355 20.394C5.81689 20.366 5.80355 20.33 5.80355 20.286C5.80355 20.2433 5.81689 20.2087 5.84355 20.182C5.87155 20.154 5.90822 20.14 5.95355 20.14C6.00022 20.14 6.03622 20.154 6.06155 20.182C6.08822 20.2087 6.10155 20.2433 6.10155 20.286C6.10155 20.33 6.08822 20.366 6.06155 20.394C6.03622 20.422 6.00022 20.436 5.95355 20.436Z" fill="black"/>
<path d="M17 14H7" stroke="black" stroke-linecap="round"/>
<path d="M17 17H7" stroke="black" stroke-linecap="round"/>
<path d="M17 20H7" stroke="black" stroke-linecap="round"/>
</g>
<defs>
<clipPath id="clip0_57_971">
<rect width="24" height="24" fill="white"/>
</clipPath>
<clipPath id="clip1_57_971">
<rect width="3" height="2" fill="white" transform="translate(4 13)"/>
</clipPath>
<clipPath id="clip2_57_971">
<rect width="3" height="3" fill="white" transform="translate(4 16)"/>
</clipPath>
</defs>
</svg>
