<svg width="24" height="24" viewBox="0 0 24 24" fill="none" xmlns="http://www.w3.org/2000/svg">
<path d="M17.9909 4C18.1134 4 18.2248 4.04248 18.3118 4.11242C18.4213 4.20041 22.8557 8.20908 22.8904 8.24962C22.9613 8.33237 23 8.44152 23 8.55691C23 8.66807 22.9567 8.76787 22.8904 8.84921C22.8505 8.89818 18.3353 12.9789 18.3353 12.9789C18.145 13.1528 17.8039 13.1469 17.6231 12.9639C17.4422 12.7809 17.4547 12.4542 17.6465 12.2819L21.239 9.03658H8.47364C4.99763 9.03658 2.05096 11.8241 1.96182 15.2724C1.96182 15.5373 1.73755 15.752 1.46091 15.752C1.18426 15.752 0.96 15.5373 0.96 15.2724C0.96 15.095 0.98348 14.7927 0.98348 14.7927C1.32242 11.0477 4.59622 8.07723 8.47364 8.07723H21.239C21.239 8.07723 17.7069 4.8998 17.6152 4.80196C17.5356 4.71703 17.49 4.60277 17.49 4.47967C17.49 4.21476 17.7143 4 17.9909 4Z" fill="black"/>
</svg>
