<svg width="24" height="24" viewBox="0 0 24 24" fill="none" xmlns="http://www.w3.org/2000/svg">
<g clip-path="url(#clip0_52_31)">
<path d="M12.0148 16.108C11.4548 16.108 10.9628 16.036 10.5388 15.892C10.1228 15.74 9.77077 15.52 9.48277 15.232C9.19477 14.936 8.97877 14.572 8.83477 14.14C8.69077 13.708 8.61877 13.212 8.61877 12.652V7.96C8.61877 7.792 8.65877 7.668 8.73877 7.588C8.82677 7.5 8.95077 7.456 9.11077 7.456C9.27077 7.456 9.39077 7.5 9.47077 7.588C9.55877 7.668 9.60277 7.792 9.60277 7.96V12.604C9.60277 13.484 9.80677 14.144 10.2148 14.584C10.6228 15.016 11.2228 15.232 12.0148 15.232C12.8068 15.232 13.4028 15.016 13.8028 14.584C14.2028 14.144 14.4028 13.484 14.4028 12.604V7.96C14.4028 7.792 14.4468 7.668 14.5348 7.588C14.6228 7.5 14.7468 7.456 14.9068 7.456C15.0588 7.456 15.1748 7.5 15.2548 7.588C15.3428 7.668 15.3868 7.792 15.3868 7.96V12.652C15.3868 13.396 15.2588 14.028 15.0028 14.548C14.7548 15.068 14.3788 15.46 13.8748 15.724C13.3708 15.98 12.7508 16.108 12.0148 16.108Z" fill="black"/>
<path d="M7.63477 17.128H16.3708V17.464H7.63477V17.128Z" fill="black"/>
</g>
<defs>
<clipPath id="clip0_52_31">
<rect width="24" height="24" fill="white"/>
</clipPath>
</defs>
</svg>
