<svg width="24" height="24" viewBox="0 0 24 24" fill="none" xmlns="http://www.w3.org/2000/svg">
<path d="M6.00909 4C5.88658 4 5.77524 4.04248 5.6882 4.11242C5.57869 4.20041 1.1443 8.20908 1.10957 8.24962C1.03869 8.33237 1 8.44152 1 8.55691C1 8.66807 1.0433 8.76787 1.10957 8.84921C1.14947 8.89818 5.66472 12.9789 5.66472 12.9789C5.85502 13.1528 6.19614 13.1469 6.37695 12.9639C6.55775 12.7809 6.54531 12.4542 6.35347 12.2819L2.76101 9.03658H15.5264C19.0024 9.03658 21.949 11.8241 22.0382 15.2724C22.0382 15.5373 22.2624 15.752 22.5391 15.752C22.8157 15.752 23.04 15.5373 23.04 15.2724C23.04 15.095 23.0165 14.7927 23.0165 14.7927C22.6776 11.0477 19.4038 8.07723 15.5264 8.07723H2.76101C2.76101 8.07723 6.29307 4.8998 6.38477 4.80196C6.46437 4.71703 6.51 4.60277 6.51 4.47967C6.51 4.21476 6.28574 4 6.00909 4Z" fill="black"/>
</svg>
